<mxfile host="65bd71144e">
    <diagram id="-MfXcYX6jvQr6golZPMy" name="Page-1">
        <mxGraphModel dx="679" dy="526" grid="1" gridSize="10" guides="1" tooltips="1" connect="1" arrows="1" fold="1" page="1" pageScale="1" pageWidth="827" pageHeight="1169" math="0" shadow="0">
            <root>
                <mxCell id="0"/>
                <mxCell id="1" parent="0"/>
                <mxCell id="2" value="从头开始比较" style="text;html=1;align=center;verticalAlign=middle;resizable=0;points=[];autosize=1;strokeColor=none;fillColor=none;" vertex="1" parent="1">
                    <mxGeometry x="10" y="65" width="100" height="30" as="geometry"/>
                </mxCell>
                <mxCell id="3" value="i&amp;lt;=el &amp;amp;&amp;amp; i&amp;lt;=e2" style="text;html=1;align=center;verticalAlign=middle;resizable=0;points=[];autosize=1;strokeColor=none;fillColor=none;" vertex="1" parent="1">
                    <mxGeometry x="110" y="65" width="100" height="30" as="geometry"/>
                </mxCell>
                <mxCell id="4" value="旧节点" style="text;html=1;align=center;verticalAlign=middle;resizable=0;points=[];autosize=1;strokeColor=none;fillColor=none;" vertex="1" parent="1">
                    <mxGeometry x="20" y="145" width="60" height="30" as="geometry"/>
                </mxCell>
                <mxCell id="5" value="a" style="ellipse;whiteSpace=wrap;html=1;aspect=fixed;" vertex="1" parent="1">
                    <mxGeometry x="90" y="140" width="30" height="30" as="geometry"/>
                </mxCell>
                <mxCell id="6" value="b" style="ellipse;whiteSpace=wrap;html=1;aspect=fixed;" vertex="1" parent="1">
                    <mxGeometry x="145" y="140" width="30" height="30" as="geometry"/>
                </mxCell>
                <mxCell id="7" value="c" style="ellipse;whiteSpace=wrap;html=1;aspect=fixed;" vertex="1" parent="1">
                    <mxGeometry x="200" y="140" width="30" height="30" as="geometry"/>
                </mxCell>
                <mxCell id="17" value="" style="edgeStyle=none;html=1;" edge="1" parent="1" source="8" target="5">
                    <mxGeometry relative="1" as="geometry"/>
                </mxCell>
                <mxCell id="8" value="a" style="ellipse;whiteSpace=wrap;html=1;aspect=fixed;" vertex="1" parent="1">
                    <mxGeometry x="90" y="210" width="30" height="30" as="geometry"/>
                </mxCell>
                <mxCell id="18" value="" style="edgeStyle=none;html=1;" edge="1" parent="1" source="9" target="6">
                    <mxGeometry relative="1" as="geometry"/>
                </mxCell>
                <mxCell id="9" value="b" style="ellipse;whiteSpace=wrap;html=1;aspect=fixed;" vertex="1" parent="1">
                    <mxGeometry x="145" y="210" width="30" height="30" as="geometry"/>
                </mxCell>
                <mxCell id="10" value="d" style="ellipse;whiteSpace=wrap;html=1;aspect=fixed;" vertex="1" parent="1">
                    <mxGeometry x="200" y="210" width="30" height="30" as="geometry"/>
                </mxCell>
                <mxCell id="13" value="e" style="ellipse;whiteSpace=wrap;html=1;aspect=fixed;" vertex="1" parent="1">
                    <mxGeometry x="270" y="210" width="30" height="30" as="geometry"/>
                </mxCell>
                <mxCell id="14" value="f" style="ellipse;whiteSpace=wrap;html=1;aspect=fixed;" vertex="1" parent="1">
                    <mxGeometry x="340" y="210" width="30" height="30" as="geometry"/>
                </mxCell>
                <mxCell id="19" value="patch" style="text;html=1;align=center;verticalAlign=middle;resizable=0;points=[];autosize=1;strokeColor=none;fillColor=none;" vertex="1" parent="1">
                    <mxGeometry x="65" y="175" width="50" height="30" as="geometry"/>
                </mxCell>
                <mxCell id="20" value="patch" style="text;html=1;align=center;verticalAlign=middle;resizable=0;points=[];autosize=1;strokeColor=none;fillColor=none;" vertex="1" parent="1">
                    <mxGeometry x="115" y="175" width="50" height="30" as="geometry"/>
                </mxCell>
                <mxCell id="21" value="break" style="text;html=1;align=center;verticalAlign=middle;resizable=0;points=[];autosize=1;strokeColor=none;fillColor=none;" vertex="1" parent="1">
                    <mxGeometry x="195" y="175" width="50" height="30" as="geometry"/>
                </mxCell>
                <mxCell id="23" value="e1=2" style="text;html=1;align=center;verticalAlign=middle;resizable=0;points=[];autosize=1;strokeColor=none;fillColor=none;" vertex="1" parent="1">
                    <mxGeometry x="195" y="85" width="50" height="30" as="geometry"/>
                </mxCell>
                <mxCell id="24" value="e2=4" style="text;html=1;align=center;verticalAlign=middle;resizable=0;points=[];autosize=1;strokeColor=none;fillColor=none;" vertex="1" parent="1">
                    <mxGeometry x="335" y="255" width="50" height="30" as="geometry"/>
                </mxCell>
                <mxCell id="25" value="i&amp;lt;=el &amp;amp;&amp;amp; i&amp;lt;=e2" style="text;html=1;align=center;verticalAlign=middle;resizable=0;points=[];autosize=1;strokeColor=none;fillColor=none;" vertex="1" parent="1">
                    <mxGeometry x="110" y="320" width="100" height="30" as="geometry"/>
                </mxCell>
                <mxCell id="26" value="旧节点" style="text;html=1;align=center;verticalAlign=middle;resizable=0;points=[];autosize=1;strokeColor=none;fillColor=none;" vertex="1" parent="1">
                    <mxGeometry x="10" y="350" width="60" height="30" as="geometry"/>
                </mxCell>
                <mxCell id="27" value="a" style="ellipse;whiteSpace=wrap;html=1;aspect=fixed;" vertex="1" parent="1">
                    <mxGeometry x="190" y="350" width="30" height="30" as="geometry"/>
                </mxCell>
                <mxCell id="28" value="b" style="ellipse;whiteSpace=wrap;html=1;aspect=fixed;" vertex="1" parent="1">
                    <mxGeometry x="260" y="350" width="30" height="30" as="geometry"/>
                </mxCell>
                <mxCell id="29" value="c" style="ellipse;whiteSpace=wrap;html=1;aspect=fixed;" vertex="1" parent="1">
                    <mxGeometry x="330" y="350" width="30" height="30" as="geometry"/>
                </mxCell>
                <mxCell id="31" value="d" style="ellipse;whiteSpace=wrap;html=1;aspect=fixed;" vertex="1" parent="1">
                    <mxGeometry x="80" y="415" width="30" height="30" as="geometry"/>
                </mxCell>
                <mxCell id="33" value="e" style="ellipse;whiteSpace=wrap;html=1;aspect=fixed;" vertex="1" parent="1">
                    <mxGeometry x="135" y="415" width="30" height="30" as="geometry"/>
                </mxCell>
                <mxCell id="34" value="f" style="ellipse;whiteSpace=wrap;html=1;aspect=fixed;" vertex="1" parent="1">
                    <mxGeometry x="190" y="415" width="30" height="30" as="geometry"/>
                </mxCell>
                <mxCell id="47" value="" style="edgeStyle=none;html=1;" edge="1" parent="1" source="35" target="28">
                    <mxGeometry relative="1" as="geometry"/>
                </mxCell>
                <mxCell id="35" value="b" style="ellipse;whiteSpace=wrap;html=1;aspect=fixed;" vertex="1" parent="1">
                    <mxGeometry x="260" y="415" width="30" height="30" as="geometry"/>
                </mxCell>
                <mxCell id="46" value="" style="edgeStyle=none;html=1;" edge="1" parent="1" source="36" target="29">
                    <mxGeometry relative="1" as="geometry"/>
                </mxCell>
                <mxCell id="36" value="c" style="ellipse;whiteSpace=wrap;html=1;aspect=fixed;" vertex="1" parent="1">
                    <mxGeometry x="330" y="415" width="30" height="30" as="geometry"/>
                </mxCell>
                <mxCell id="40" value="e1=2" style="text;html=1;align=center;verticalAlign=middle;resizable=0;points=[];autosize=1;strokeColor=none;fillColor=none;" vertex="1" parent="1">
                    <mxGeometry x="185" y="290" width="50" height="30" as="geometry"/>
                </mxCell>
                <mxCell id="41" value="e2=2" style="text;html=1;align=center;verticalAlign=middle;resizable=0;points=[];autosize=1;strokeColor=none;fillColor=none;" vertex="1" parent="1">
                    <mxGeometry x="185" y="460" width="50" height="30" as="geometry"/>
                </mxCell>
                <mxCell id="42" value="新节点" style="text;html=1;align=center;verticalAlign=middle;resizable=0;points=[];autosize=1;strokeColor=none;fillColor=none;" vertex="1" parent="1">
                    <mxGeometry x="30" y="215" width="60" height="30" as="geometry"/>
                </mxCell>
                <mxCell id="44" value="新节点" style="text;html=1;align=center;verticalAlign=middle;resizable=0;points=[];autosize=1;strokeColor=none;fillColor=none;" vertex="1" parent="1">
                    <mxGeometry x="10" y="410" width="60" height="30" as="geometry"/>
                </mxCell>
                <mxCell id="48" value="patch" style="text;html=1;align=center;verticalAlign=middle;resizable=0;points=[];autosize=1;strokeColor=none;fillColor=none;" vertex="1" parent="1">
                    <mxGeometry x="345" y="385" width="50" height="30" as="geometry"/>
                </mxCell>
                <mxCell id="49" value="patch" style="text;html=1;align=center;verticalAlign=middle;resizable=0;points=[];autosize=1;strokeColor=none;fillColor=none;" vertex="1" parent="1">
                    <mxGeometry x="255" y="385" width="50" height="30" as="geometry"/>
                </mxCell>
                <mxCell id="50" value="break" style="text;html=1;align=center;verticalAlign=middle;resizable=0;points=[];autosize=1;strokeColor=none;fillColor=none;" vertex="1" parent="1">
                    <mxGeometry x="175" y="375" width="50" height="30" as="geometry"/>
                </mxCell>
                <mxCell id="51" value="从尾部开始比较" style="text;html=1;align=center;verticalAlign=middle;resizable=0;points=[];autosize=1;strokeColor=none;fillColor=none;" vertex="1" parent="1">
                    <mxGeometry x="5" y="320" width="110" height="30" as="geometry"/>
                </mxCell>
                <mxCell id="52" value="e1=0" style="text;html=1;align=center;verticalAlign=middle;resizable=0;points=[];autosize=1;strokeColor=none;fillColor=none;" vertex="1" parent="1">
                    <mxGeometry x="115" y="345" width="50" height="30" as="geometry"/>
                </mxCell>
                <mxCell id="53" value="i=0" style="text;html=1;align=center;verticalAlign=middle;resizable=0;points=[];autosize=1;strokeColor=none;fillColor=none;" vertex="1" parent="1">
                    <mxGeometry x="70" y="445" width="40" height="30" as="geometry"/>
                </mxCell>
            </root>
        </mxGraphModel>
    </diagram>
</mxfile>